<?xml version="1.0" encoding="UTF-8" standalone="no"?>
<!-- Uploaded to: SVG Repo, www.svgrepo.com, Generator: SVG Repo Mixer Tools -->

<svg
   width="800px"
   height="800px"
   viewBox="0 0 24 24"
   fill="none"
   version="1.1"
   id="svg139"
   sodipodi:docname="delete.svg"
   inkscape:version="1.2.2 (732a01da63, 2022-12-09)"
   xmlns:inkscape="http://www.inkscape.org/namespaces/inkscape"
   xmlns:sodipodi="http://sodipodi.sourceforge.net/DTD/sodipodi-0.dtd"
   xmlns="http://www.w3.org/2000/svg"
   xmlns:svg="http://www.w3.org/2000/svg">
  <defs
     id="defs143" />
  <sodipodi:namedview
     id="namedview141"
     pagecolor="#ffffff"
     bordercolor="#000000"
     borderopacity="0.25"
     inkscape:showpageshadow="2"
     inkscape:pageopacity="0.0"
     inkscape:pagecheckerboard="0"
     inkscape:deskcolor="#d1d1d1"
     showgrid="false"
     inkscape:zoom="0.80625"
     inkscape:cx="309.45736"
     inkscape:cy="402.48062"
     inkscape:window-width="1600"
     inkscape:window-height="828"
     inkscape:window-x="-9"
     inkscape:window-y="-9"
     inkscape:window-maximized="1"
     inkscape:current-layer="svg139" />
  <path
     d="m 10.4471,15.2938 c -0.3905,-0.3905 -0.3905,-1.0237 0,-1.4142 l 1.8768,-1.8769 -1.876,-1.876 c -0.3905,-0.39053 -0.3905,-1.0237 0,-1.41422 0.3905,-0.39053 1.0237,-0.39053 1.4142,0 l 1.8761,1.87602 1.8814,-1.88148 c 0.3906,-0.39052 1.0237,-0.39052 1.4142,0 0.3906,0.39053 0.3906,1.02369 0,1.41418 l -1.8814,1.8815 1.8806,1.8806 c 0.3905,0.3906 0.3905,1.0237 0,1.4142 -0.3905,0.3906 -1.0237,0.3906 -1.4142,0 l -1.8806,-1.8806 -1.8769,1.8769 c -0.3905,0.3905 -1.0237,0.3905 -1.4142,0 z"
     fill="#6b321e"
     id="path135" />
  <path
     fill-rule="evenodd"
     clip-rule="evenodd"
     d="M5.6131 5.14653C6.18186 4.42266 7.05148 4 7.97206 4H20C21.6568 4 23 5.34315 23 7V17C23 18.6569 21.6568 20 20 20H7.97206C7.05148 20 6.18186 19.5773 5.6131 18.8535L1.68453 13.8535C0.829805 12.7656 0.829807 11.2344 1.68453 10.1465L5.6131 5.14653ZM7.97206 6C7.6652 6 7.37533 6.14089 7.18574 6.38218L3.25717 11.3822C2.97226 11.7448 2.97226 12.2552 3.25717 12.6178L7.18574 17.6178C7.37533 17.8591 7.6652 18 7.97206 18H20C20.5523 18 21 17.5523 21 17V7C21 6.44772 20.5523 6 20 6H7.97206Z"
     fill="#6b321e"
     id="path137" />
</svg>
