<?xml version="1.0" encoding="iso-8859-1"?>
<!-- Uploaded to: SVG Repo, www.svgrepo.com, Generator: SVG Repo Mixer Tools -->
<!DOCTYPE svg PUBLIC "-//W3C//DTD SVG 1.1//EN" "http://www.w3.org/Graphics/SVG/1.1/DTD/svg11.dtd">
<svg fill="#6b321e" version="1.1" id="Capa_1" xmlns="http://www.w3.org/2000/svg" xmlns:xlink="http://www.w3.org/1999/xlink" 
	 width="24px" height="24px" viewBox="0 0 316.513 316.513"
	 xml:space="preserve">
<g>
	<path d="M158.247,0C70.988,0,0.012,71,0.012,158.262c0,87.244,70.977,158.251,158.235,158.251
		c87.253,0,158.254-71.007,158.254-158.251C316.501,71,245.5,0,158.247,0z M262.812,113.157c1.483,4.633-1.087,9.586-5.734,11.069
		l-24.241,7.717c-0.895,0.288-1.789,0.411-2.685,0.411c-3.729,0-7.193-2.39-8.406-6.149c-1.459-4.636,1.099-9.593,5.746-11.073
		l24.241-7.716C256.368,105.934,261.328,108.509,262.812,113.157z M53.68,110.95c1.477-4.647,6.437-7.218,11.082-5.737l24.25,7.719
		c4.636,1.48,7.206,6.438,5.726,11.073c-1.188,3.75-4.675,6.148-8.395,6.148c-0.892,0-1.783-0.129-2.681-0.411l-24.245-7.716
		C54.775,120.543,52.211,115.586,53.68,110.95z M95.155,167.071h-41.88c-4.876,0-8.824-3.939-8.824-8.81
		c0-4.885,3.948-8.833,8.824-8.833h41.88c4.87,0,8.818,3.948,8.818,8.833C103.967,163.132,100.024,167.071,95.155,167.071z
		 M114.334,105.528c-1.717,1.714-3.972,2.582-6.23,2.582s-4.512-0.868-6.242-2.582L80.38,84.037c-3.456-3.444-3.456-9.025,0-12.469
		c3.435-3.444,9.02-3.444,12.457,0l21.491,21.494C117.778,96.5,117.778,102.084,114.334,105.528z M134.36,85.691
		c-1.255,0.627-2.606,0.921-3.924,0.921c-3.234,0-6.35-1.784-7.905-4.87l-11.568-23.148c-2.177-4.363-0.411-9.65,3.942-11.833
		c4.366-2.164,9.662-0.411,11.83,3.948l11.574,23.146C140.491,78.215,138.72,83.515,134.36,85.691z M167.377,192.423
		c0,4.87-3.95,8.821-8.82,8.821c-4.876,0-8.818-3.951-8.818-8.821V44.186c0-4.876,3.942-8.824,8.818-8.824
		c4.87,0,8.82,3.948,8.82,8.824V192.423z M186.076,88.819c-1.327,0-2.672-0.306-3.945-0.928c-4.359-2.177-6.112-7.47-3.944-11.829
		l11.564-23.146c2.181-4.354,7.482-6.119,11.842-3.948c4.359,2.177,6.131,7.473,3.939,11.833L193.961,83.95
		C192.424,87.039,189.312,88.819,186.076,88.819z M202.157,107.729c-3.446-3.449-3.446-9.028,0-12.463l21.491-21.497
		c3.453-3.443,9.025-3.443,12.472,0c3.441,3.45,3.441,9.025,0,12.469l-21.497,21.491c-1.717,1.715-3.975,2.582-6.232,2.582
		S203.881,109.449,202.157,107.729z M263.227,169.274h-41.89c-4.864,0-8.815-3.938-8.815-8.814c0-4.873,3.951-8.827,8.815-8.827
		h41.89c4.875,0,8.82,3.954,8.82,8.827C272.041,165.336,268.102,169.274,263.227,169.274z"/>
</g>
</svg>